<svg xmlns="http://www.w3.org/2000/svg" xmlns:xlink="http://www.w3.org/1999/xlink" viewBox="0 0 360.55 55.56"><defs><style>.cls-1{fill:#838383;}.cls-2{fill:#21dcd1;}.cls-3{fill:none;}.cls-4{fill:url(#linear-gradient);}.cls-5{fill:url(#linear-gradient-2);}.cls-6{fill:#164bd3;}.cls-7{fill:#dadada;}</style><linearGradient id="linear-gradient" x1="231.16" y1="35.16" x2="246.62" y2="35.16" gradientUnits="userSpaceOnUse"><stop offset="0" stop-color="#21dcd1"/><stop offset="0.22" stop-color="#21d9ce"/><stop offset="0.41" stop-color="#1fcec3"/><stop offset="0.59" stop-color="#1cbcb1"/><stop offset="0.76" stop-color="#19a299"/><stop offset="0.93" stop-color="#148279"/><stop offset="1" stop-color="#127269"/></linearGradient><linearGradient id="linear-gradient-2" x1="233.95" y1="14.44" x2="252.24" y2="29.68" gradientUnits="userSpaceOnUse"><stop offset="0" stop-color="#444"/><stop offset="0.11" stop-color="#5a5a5a"/><stop offset="0.24" stop-color="#6c6c6c"/><stop offset="0.39" stop-color="#797979"/><stop offset="0.59" stop-color="#818181"/><stop offset="1" stop-color="#838383"/></linearGradient></defs><g id="Layer_2" data-name="Layer 2"><g id="Layer_1-2" data-name="Layer 1"><path class="cls-1" d="M156.16,33.61a12.57,12.57,0,0,1-4.24,9q-3.81,3.28-10.06,3.29-6.83,0-10.74-4.6T127.2,28.71V26.54a21.33,21.33,0,0,1,1.81-9,13.44,13.44,0,0,1,5.16-6A14.43,14.43,0,0,1,142,9.44q6.15,0,9.9,3.3A13.5,13.5,0,0,1,156.21,22h-7.32A7.42,7.42,0,0,0,147,17a7.09,7.09,0,0,0-5-1.55,6.25,6.25,0,0,0-5.48,2.62q-1.81,2.63-1.86,8.14v2.68c0,3.84.58,6.64,1.74,8.42a6.12,6.12,0,0,0,5.5,2.66,7.23,7.23,0,0,0,5.06-1.55,7,7,0,0,0,1.92-4.8Z"/><path class="cls-1" d="M175.11,32.44h-5.83v13H162V9.93h13.2q6.28,0,9.7,2.81a9.67,9.67,0,0,1,3.42,7.92,11,11,0,0,1-1.57,6.06,10.74,10.74,0,0,1-4.77,3.87l7.68,14.51v.34h-7.85Zm-5.83-5.92h5.9a6,6,0,0,0,4.27-1.41A5,5,0,0,0,181,21.25a5.32,5.32,0,0,0-1.43-3.95,5.92,5.92,0,0,0-4.37-1.44h-5.88Z"/><path class="cls-1" d="M216.21,30.05H202.16v9.52h16.48v5.87h-23.8V9.93H218.6v5.93H202.16v8.46h14.05Z"/><path class="cls-2" d="M282.35,15.86H271.47V45.44h-7.31V15.86H253.42V9.93h28.93Z"/><path class="cls-2" d="M295.3,45.44H288V9.93h7.31Z"/><path class="cls-2" d="M316.2,36.64l8.05-26.71h8.15L320,45.44H312.4L300.08,9.93h8.12Z"/><path class="cls-2" d="M358.11,30.05H344.06v9.52h16.49v5.87H336.74V9.93H360.5v5.93H344.06v8.46h14.05Z"/><line class="cls-3" x1="231.24" y1="36.96" x2="228.72" y2="44.28"/><polygon class="cls-4" points="243.99 38.12 231.16 38.12 233.13 32.2 242.01 32.2 243.99 38.12"/><polygon class="cls-2" points="254.23 45.44 246.45 45.44 243.99 38.12 242.01 32.2 249.27 32.2 254.23 45.44"/><polygon class="cls-5" points="248.89 31.2 241.67 31.2 237.55 18.9 240.53 9.93 240.94 9.93 248.89 31.2"/><polygon class="cls-1" points="240.53 9.93 237.55 18.9 233.13 32.2 231.16 38.12 228.72 45.44 220.94 45.44 234.16 9.93 240.53 9.93"/><line class="cls-3" x1="237.4" y1="32.2" x2="237.4" y2="31.2"/><rect class="cls-6" width="6.94" height="55.56"/><path class="cls-7" d="M47.7,41a12.7,12.7,0,0,1-5.59,3.68,23.35,23.35,0,0,1-8,1.3A15.83,15.83,0,0,1,26,44a13.42,13.42,0,0,1-5.37-5.84,20.57,20.57,0,0,1-1.94-9V26.7a22,22,0,0,1,1.79-9.21,13.35,13.35,0,0,1,5.17-5.95A15,15,0,0,1,33.6,9.48q6.32,0,9.88,3t4.22,8.77H40.58a7.11,7.11,0,0,0-2.16-4.46,6.93,6.93,0,0,0-4.6-1.42,6.48,6.48,0,0,0-5.68,2.81q-2,2.8-2,8.34V28.8c0,3.72.71,6.54,2.12,8.44a7.28,7.28,0,0,0,6.22,2.85q4.13,0,5.88-1.75V32.21H33.72V26.82h14Z"/><path class="cls-7" d="M82.05,31.24l-3.8,4.1V45.48H70.93V10h7.32v16.1l3.22-4.42,9-11.68h9L86.91,25.75l13,19.73h-8.7Z"/><path class="cls-7" d="M63.85,26.1l-3.22,5.3a.32.32,0,0,1-.29.17H55.08a.35.35,0,0,1-.3-.53L58,25.74a.34.34,0,0,1,.3-.17h5.26A.35.35,0,0,1,63.85,26.1Z"/></g></g></svg>