<svg xmlns="http://www.w3.org/2000/svg" width="44" height="27.622" viewBox="0 0 44 27.622"><defs><style>.a{fill:#dadada;}</style></defs><path class="a" d="M28.915,2.246H39.895V4.909H28.915Zm-11,10.539a5.812,5.812,0,0,0,3.7-5.658c0-5.4-4.018-6.709-8.657-6.709H.188v27.1H13.313c4.92,0,9.537-2.366,9.537-7.87C22.851,16.246,21.244,13.731,17.914,12.785ZM6.142,5.041h5.586c2.152,0,4.084.6,4.084,3.1,0,2.3-1.5,3.225-3.632,3.225H6.142ZM12.5,22.916H6.137V15.454h6.489c2.62,0,4.276,1.1,4.276,3.869C16.9,22.052,14.926,22.916,12.5,22.916Zm31.689-4.926c0-5.806-3.4-10.644-9.537-10.644-5.971,0-10.033,4.5-10.033,10.39,0,6.109,3.847,10.3,10.033,10.3,4.683,0,7.716-2.108,9.174-6.6H39.075C38.557,23.115,36.455,24,34.821,24c-3.159,0-4.81-1.849-4.81-4.992H44.149C44.165,18.679,44.188,18.338,44.188,17.991ZM30.011,15.6a4.21,4.21,0,0,1,4.469-4.194c2.708,0,4.062,1.59,4.3,4.194Z" transform="translate(-0.188 -0.418)"/></svg>