<svg xmlns="http://www.w3.org/2000/svg" width="44" height="43.999" viewBox="0 0 44 43.999"><defs><style>.a{fill:#dadada;}</style></defs><path class="a" d="M22.03,10.742A11.288,11.288,0,1,0,33.318,22.03,11.272,11.272,0,0,0,22.03,10.742Zm0,18.624a7.336,7.336,0,1,1,7.336-7.336A7.352,7.352,0,0,1,22.03,29.366ZM33.78,7.649a2.633,2.633,0,1,0,1.009.2A2.633,2.633,0,0,0,33.78,7.649ZM44.033,22.03c0-3.038.028-6.048-.143-9.081-.171-3.522-.974-6.648-3.55-9.224S34.638.346,31.116.175C28.078,0,25.068.032,22.035.032S15.987,0,12.954.175c-3.522.171-6.648.974-9.224,3.55S.351,9.427.18,12.949C.01,15.987.037,19,.037,22.03S.01,28.078.18,31.111c.171,3.522.974,6.648,3.55,9.224s5.7,3.379,9.224,3.55c3.038.171,6.048.143,9.081.143s6.048.028,9.081-.143c3.522-.171,6.648-.974,9.224-3.55s3.379-5.7,3.55-9.224C44.066,28.078,44.033,25.068,44.033,22.03ZM39.19,35.007a7.508,7.508,0,0,1-4.183,4.183c-2.895,1.15-9.769.892-12.977.892S11.941,40.34,9.047,39.2a7.508,7.508,0,0,1-4.183-4.183c-1.145-2.9-.886-9.774-.886-12.983s-.259-10.088.886-12.983A6.994,6.994,0,0,1,6.526,6.526,7.114,7.114,0,0,1,9.047,4.864c2.895-1.145,9.774-.886,12.983-.886s10.088-.259,12.983.886a6.994,6.994,0,0,1,2.521,1.662A7.041,7.041,0,0,1,39.2,9.047c1.145,2.895.886,9.774.886,12.983S40.34,32.113,39.19,35.007Z" transform="translate(-0.036 -0.03)"/></svg>