<svg xmlns="http://www.w3.org/2000/svg" width="44" height="42.167" viewBox="0 0 44 42.167"><defs><style>.a{fill:#dadada;}</style></defs><path class="a" d="M9.987,42.166V13.716H.555v28.45ZM5.273,9.83c3.289,0,5.336-2.185,5.336-4.915A4.907,4.907,0,0,0,5.335,0C2.109,0,0,2.124,0,4.915A4.888,4.888,0,0,0,5.211,9.83h.062Zm9.935,32.336H24.64V26.278a6.5,6.5,0,0,1,.31-2.308,5.165,5.165,0,0,1,4.839-3.458c3.413,0,4.778,2.609,4.778,6.433v15.22H44V25.853c0-8.739-4.653-12.8-10.859-12.8a9.392,9.392,0,0,0-8.563,4.793h.063V13.716H15.208c.124,2.67,0,28.45,0,28.45Z" transform="translate(0.001 0)"/></svg>